<svg xmlns="http://www.w3.org/2000/svg" xmlns:xlink="http://www.w3.org/1999/xlink" hidden><defs>
    <style>
      .cls-1 {
        fill: #345972;
        fill-rule: evenodd;
      }
    </style>

    <style>
      .cls-1 {
        fill: #345972;
        fill-rule: evenodd;
      }
    </style>

    <style>
      .cls-1 {
        fill: #00c8ff;
        fill-rule: evenodd;
      }
    </style>

		<rect id="SVGID_1_" width="62" height="62"/>

		<rect id="SVGID_1_" width="62" height="62"/>

		<rect id="SVGID_1_" width="62" height="62"/>
	</defs><symbol id="icon-arrow-active" viewBox="0 0 30 40">
  <metadata><?xpacket begin="﻿" id="W5M0MpCehiHzreSzNTczkc9d"?>
<x:xmpmeta xmlns:x="adobe:ns:meta/" x:xmptk="Adobe XMP Core 5.6-c140 79.160451, 2017/05/06-01:08:21        ">
   <rdf:RDF xmlns:rdf="http://www.w3.org/1999/02/22-rdf-syntax-ns#">
      <rdf:Description rdf:about=""/>
   </rdf:RDF>
</x:xmpmeta>
<?xpacket end="w"?></metadata>

  <path id="_" data-name="prev" class="icon-arrow-active" d="M6762.67,2590l15.32-16h-10.83L6748,2594l19.16,20h10.83l-15.32-16v-8Z" transform="translate(-6748 -2574)"/>
</symbol><symbol id="icon-arrow-disabled" viewBox="0 0 30 40">
  <metadata><?xpacket begin="﻿" id="W5M0MpCehiHzreSzNTczkc9d"?>
<x:xmpmeta xmlns:x="adobe:ns:meta/" x:xmptk="Adobe XMP Core 5.6-c140 79.160451, 2017/05/06-01:08:21        ">
   <rdf:RDF xmlns:rdf="http://www.w3.org/1999/02/22-rdf-syntax-ns#">
      <rdf:Description rdf:about=""/>
   </rdf:RDF>
</x:xmpmeta>
<?xpacket end="w"?></metadata>
  <path id="_" data-name=">" class="icon-arrow-disabled" d="M6833.33,2598l-15.32,16h10.83l19.15-20-19.15-20h-10.83l15.32,16v8Z" transform="translate(-6818 -2574)"/>
</symbol><symbol id="icon-arrow-mobile" viewBox="0 0 56 42">
  <metadata><?xpacket begin="﻿" id="W5M0MpCehiHzreSzNTczkc9d"?>
<x:xmpmeta xmlns:x="adobe:ns:meta/" x:xmptk="Adobe XMP Core 5.6-c140 79.160451, 2017/05/06-01:08:21        ">
   <rdf:RDF xmlns:rdf="http://www.w3.org/1999/02/22-rdf-syntax-ns#">
      <rdf:Description rdf:about=""/>
   </rdf:RDF>
</x:xmpmeta>
<?xpacket end="w"?></metadata>

  <path id="_" data-name="prev" class="cls-1" d="M7022.4,1347.46l-22.4-21.45v15.17l28,26.81,28-26.81v-15.17l-22.4,21.45h-11.2Z" transform="translate(-7000 -1326)"/>
</symbol><symbol id="icon-blockchain" viewBox="0 0 62 62">
<g>

	<clipPath id="SVGID_2_">
		<use xlink:href="#SVGID_1_" style="overflow:visible;"/>
	</clipPath>

		<path style="clip-path:url(#SVGID_2_);fill:none;stroke:#345972;stroke-width:2;stroke-linecap:round;stroke-linejoin:round;stroke-miterlimit:10;" d="
		M31,13L31,13c-3.313,0-6-2.687-6-6c0-3.313,2.687-6,6-6c3.314,0,6,2.687,6,6C37,10.313,34.314,13,31,13z"/>

		<path style="clip-path:url(#SVGID_2_);fill:none;stroke:#345972;stroke-width:2;stroke-linecap:round;stroke-linejoin:round;stroke-miterlimit:10;" d="
		M55,13L55,13c-3.313,0-6-2.687-6-6c0-3.313,2.687-6,6-6c3.314,0,6,2.687,6,6C61,10.313,58.314,13,55,13z"/>

		<path style="clip-path:url(#SVGID_2_);fill:none;stroke:#345972;stroke-width:2;stroke-linecap:round;stroke-linejoin:round;stroke-miterlimit:10;" d="
		M7,13L7,13c-3.313,0-6-2.687-6-6c0-3.313,2.687-6,6-6c3.314,0,6,2.687,6,6C13,10.313,10.314,13,7,13z"/>

		<path style="clip-path:url(#SVGID_2_);fill:none;stroke:#345972;stroke-width:2;stroke-linecap:round;stroke-linejoin:round;stroke-miterlimit:10;" d="
		M31,37L31,37c-3.313,0-6-2.687-6-6c0-3.313,2.687-6,6-6c3.314,0,6,2.687,6,6C37,34.313,34.314,37,31,37z"/>

		<path style="clip-path:url(#SVGID_2_);fill:none;stroke:#345972;stroke-width:2;stroke-linecap:round;stroke-linejoin:round;stroke-miterlimit:10;" d="
		M55,37L55,37c-3.313,0-6-2.687-6-6c0-3.313,2.687-6,6-6c3.314,0,6,2.687,6,6C61,34.313,58.314,37,55,37z"/>

		<path style="clip-path:url(#SVGID_2_);fill:none;stroke:#345972;stroke-width:2;stroke-linecap:round;stroke-linejoin:round;stroke-miterlimit:10;" d="
		M7,37L7,37c-3.313,0-6-2.687-6-6c0-3.313,2.687-6,6-6c3.314,0,6,2.687,6,6C13,34.313,10.314,37,7,37z"/>

		<path style="clip-path:url(#SVGID_2_);fill:none;stroke:#345972;stroke-width:2;stroke-linecap:round;stroke-linejoin:round;stroke-miterlimit:10;" d="
		M31,61L31,61c-3.313,0-6-2.687-6-6s2.687-6,6-6c3.314,0,6,2.687,6,6S34.314,61,31,61z"/>

		<path style="clip-path:url(#SVGID_2_);fill:none;stroke:#345972;stroke-width:2;stroke-linecap:round;stroke-linejoin:round;stroke-miterlimit:10;" d="
		M55,61L55,61c-3.313,0-6-2.687-6-6s2.687-6,6-6c3.314,0,6,2.687,6,6S58.314,61,55,61z"/>

		<path style="clip-path:url(#SVGID_2_);fill:none;stroke:#345972;stroke-width:2;stroke-linecap:round;stroke-linejoin:round;stroke-miterlimit:10;" d="
		M7,61L7,61c-3.313,0-6-2.687-6-6s2.687-6,6-6c3.314,0,6,2.687,6,6S10.314,61,7,61z"/>

		<line style="clip-path:url(#SVGID_2_);fill:none;stroke:#345972;stroke-width:2;stroke-linecap:round;stroke-linejoin:round;stroke-miterlimit:10;" x1="11.5" y1="11.5" x2="26.5" y2="26.5"/>

		<line style="clip-path:url(#SVGID_2_);fill:none;stroke:#345972;stroke-width:2;stroke-linecap:round;stroke-linejoin:round;stroke-miterlimit:10;" x1="31" y1="37" x2="31" y2="49"/>

		<line style="clip-path:url(#SVGID_2_);fill:none;stroke:#345972;stroke-width:2;stroke-linecap:round;stroke-linejoin:round;stroke-miterlimit:10;" x1="55" y1="13" x2="55" y2="25"/>

		<line style="clip-path:url(#SVGID_2_);fill:none;stroke:#345972;stroke-width:2;stroke-linecap:round;stroke-linejoin:round;stroke-miterlimit:10;" x1="55" y1="37" x2="55" y2="49"/>

		<line style="clip-path:url(#SVGID_2_);fill:none;stroke:#345972;stroke-width:2;stroke-linecap:round;stroke-linejoin:round;stroke-miterlimit:10;" x1="37" y1="7" x2="49" y2="7"/>

		<line style="clip-path:url(#SVGID_2_);fill:none;stroke:#345972;stroke-width:2;stroke-linecap:round;stroke-linejoin:round;stroke-miterlimit:10;" x1="25" y1="55" x2="13" y2="55"/>

		<line style="clip-path:url(#SVGID_2_);fill:none;stroke:#345972;stroke-width:2;stroke-linecap:round;stroke-linejoin:round;stroke-miterlimit:10;" x1="7" y1="37" x2="7" y2="49"/>
</g>
</symbol><symbol id="icon-recognition" viewBox="0 0 62 62">
<rect x="38.5" y="12.25" style="fill:none;stroke:#345972;stroke-width:2;stroke-linecap:round;stroke-linejoin:round;stroke-miterlimit:10;" width="15" height="22.5"/>
<g>

	<clipPath id="SVGID_2_">
		<use xlink:href="#SVGID_1_" style="overflow:visible;"/>
	</clipPath>

		<polygon style="clip-path:url(#SVGID_2_);fill:none;stroke:#345972;stroke-width:2;stroke-linecap:round;stroke-linejoin:round;stroke-miterlimit:10;" points="
		43.75,61 34.75,61 38.5,34.75 47.5,34.75 	"/>

		<path style="clip-path:url(#SVGID_2_);fill:none;stroke:#345972;stroke-width:2;stroke-linecap:round;stroke-linejoin:round;stroke-miterlimit:10;" d="
		M8.5,31L8.5,31C4.358,31,1,27.642,1,23.5S4.358,16,8.5,16V31z"/>

		<path style="clip-path:url(#SVGID_2_);fill:none;stroke:#345972;stroke-width:2;stroke-linecap:round;stroke-linejoin:round;stroke-miterlimit:10;" d="
		M53.5,16H56c2.762,0,5,2.239,5,5v5c0,2.761-2.238,5-5,5h-2.5V16z"/>

		<polygon style="clip-path:url(#SVGID_2_);fill:none;stroke:#345972;stroke-width:2;stroke-linecap:round;stroke-linejoin:round;stroke-miterlimit:10;" points="
		38.5,12.25 23.5,8.5 8.5,1 8.5,46 23.5,38.5 38.5,34.75 53.5,34.75 53.5,12.25 	"/>
</g>
</symbol><symbol id="icon-reverses" viewBox="0 0 75.333 61.667">
<circle id="XMLID_5_" style="fill:none;stroke:#345972;stroke-width:2;stroke-linecap:round;stroke-linejoin:round;stroke-miterlimit:10;" cx="31" cy="30.833" r="30"/>
<path id="XMLID_4_" style="fill:none;stroke:#345972;stroke-width:1.9667;stroke-linecap:round;stroke-linejoin:round;stroke-miterlimit:10;" d="
	M36,1.333c16.292,0,29.5,13.208,29.5,29.5s-13.208,29.5-29.5,29.5"/>
<path id="XMLID_3_" style="fill:none;stroke:#345972;stroke-width:1.9333;stroke-linecap:round;stroke-linejoin:round;stroke-miterlimit:10;" d="
	M40.917,1.833c16.016,0,29,12.984,29,29s-12.984,29-29,29"/>
<path id="XMLID_2_" style="fill:none;stroke:#345972;stroke-width:1.9;stroke-linecap:round;stroke-linejoin:round;stroke-miterlimit:10;" d="
	M45.75,2.333c15.74,0,28.5,12.76,28.5,28.5s-12.76,28.5-28.5,28.5"/>
</symbol><symbol id="icon-stability" viewBox="0 0 62 62">
<g>

	<clipPath id="SVGID_2_">
		<use xlink:href="#SVGID_1_" style="overflow:visible;"/>
	</clipPath>

		<circle style="clip-path:url(#SVGID_2_);fill:none;stroke:#345972;stroke-width:2;stroke-linecap:round;stroke-linejoin:round;stroke-miterlimit:10;" cx="31" cy="31" r="20"/>

		<rect x="1" y="1" style="clip-path:url(#SVGID_2_);fill:none;stroke:#345972;stroke-width:2;stroke-linecap:round;stroke-linejoin:round;stroke-miterlimit:10;" width="60" height="60"/>
</g>
</symbol></svg>
