<svg xmlns="http://www.w3.org/2000/svg" xmlns:xlink="http://www.w3.org/1999/xlink" viewBox="0 0 62 62"><defs><path id="a" d="M0 0h62v62H0z"/></defs><clipPath id="b"><use xlink:href="#a" overflow="visible"/></clipPath><path d="M31 13A6 6 0 1 1 31.002.998 6 6 0 0 1 31 13zm24 0A6 6 0 1 1 55.002.998 6 6 0 0 1 55 13zM7 13A6 6 0 1 1 7.002.998 6 6 0 0 1 7 13zm24 24a6 6 0 1 1 .002-12.002A6 6 0 0 1 31 37zm24 0a6 6 0 1 1 .002-12.002A6 6 0 0 1 55 37zM7 37a6 6 0 1 1 .002-12.002A6 6 0 0 1 7 37zm24 24a6 6 0 1 1 .002-12.002A6 6 0 0 1 31 61zm24 0a6 6 0 1 1 .002-12.002A6 6 0 0 1 55 61zM7 61a6 6 0 1 1 .002-12.002A6 6 0 0 1 7 61zm4.5-49.5l15 15M31 37v12m24-36v12m0 12v12M37 7h12M25 55H13M7 37v12" clip-path="url(#b)" fill="none" stroke="#345972" stroke-width="2" stroke-linecap="round" stroke-linejoin="round" stroke-miterlimit="10"/></svg>